<?xml version="1.0" encoding="UTF-8"?>
<svg width="16px" height="16px" viewBox="0 0 16 16" version="1.1" xmlns="http://www.w3.org/2000/svg" xmlns:xlink="http://www.w3.org/1999/xlink">
    <!-- Generator: sketchtool 61.2 (101010) - https://sketch.com -->
    <title>A1CFA9C5-14F4-4A0F-99B1-3DBFB742D34B</title>
    <desc>Created with sketchtool.</desc>
    <g id="Indihome_style" stroke="none" stroke-width="1" fill="none" fill-rule="evenodd">
        <g id="Android" transform="translate(-245.000000, -343.000000)">
            <g id="Halaman_utama">
                <g id="list_music" transform="translate(0.000000, 287.000000)">
                    <g id="list_music-copy-6" transform="translate(9.000000, 0.000000)">
                        <g id="list_music">
                            <g id="ic_recording_view" transform="translate(236.000000, 56.000000)">
                                <path d="M9.47482143,9.86683036 C9.01858403,10.3429042 8.46317292,10.5809375 7.80857143,10.5809375 C7.15396994,10.5809375 6.59855883,10.3379451 6.14232143,9.85195312 C5.68608403,9.36596111 5.45796875,8.7758368 5.45796875,8.0815625 L5.45796875,3.499375 C5.45796875,2.8051007 5.68608403,2.21497639 6.14232143,1.72898437 C6.59855883,1.24299236 7.15396994,1 7.80857143,1 C8.46317292,1 9.01858403,1.24299236 9.47482143,1.72898437 C9.93105883,2.21497639 10.1591741,2.8051007 10.1591741,3.499375 L10.1591741,8.0815625 C10.1591741,8.7758368 9.93105883,9.37092014 9.47482143,9.86683036 Z M11.111317,5.76071429 L11.6171429,5.76071429 L11.6171429,8.14107143 C11.6171429,9.13289186 11.284888,9.99080367 10.6203683,10.7148326 C9.95584861,11.4388615 9.12769097,11.8405428 8.13587054,11.9198884 L8.13587054,13.7944196 L10.1889286,13.7944196 L10.1889286,14.33 L5.39845982,14.33 L5.39845982,13.7944196 L7.57053571,13.7944196 L7.57053571,11.9198884 C6.57871528,11.8405428 5.73568055,11.4388615 5.04140625,10.7148326 C4.34713195,9.99080367 4,9.13289186 4,8.14107143 L4,5.76071429 L4.56533482,5.76071429 L4.56533482,8.14107143 C4.56533482,9.03370982 4.88767163,9.7974001 5.53235491,10.4321652 C6.17703819,11.0669303 6.9456875,11.384308 7.83832589,11.384308 C8.73096428,11.384308 9.49961359,11.0669303 10.1442969,10.4321652 C10.7889802,9.7974001 11.111317,9.03370982 11.111317,8.14107143 L11.111317,5.76071429 Z" id="" fill="#CC4C3A" fill-rule="nonzero"></path>
                                <rect id="Rectangle" x="0" y="0" width="16" height="16"></rect>
                            </g>
                        </g>
                    </g>
                </g>
            </g>
        </g>
    </g>
</svg>