<?xml version="1.0" standalone="no"?>
<!DOCTYPE svg PUBLIC "-//W3C//DTD SVG 20010904//EN"
 "http://www.w3.org/TR/2001/REC-SVG-20010904/DTD/svg10.dtd">
<svg version="1.0" xmlns="http://www.w3.org/2000/svg"
 width="100.000000pt" height="100.000000pt" viewBox="0 0 100.000000 100.000000"
 preserveAspectRatio="xMidYMid meet">
<metadata>
Created by potrace 1.16, written by Peter Selinger 2001-2019
</metadata>
<g transform="translate(0.000000,100.000000) scale(0.100000,-0.100000)"
fill="#5365b3" stroke="none">
<path d="M420 982 c-19 -10 -48 -38 -65 -61 l-30 -43 0 -238 0 -238 30 -43
c41 -59 84 -82 152 -82 66 0 125 36 157 98 19 37 21 56 21 265 0 214 -1 227
-22 267 -33 61 -75 87 -148 91 -45 2 -69 -2 -95 -16z"/>
<path d="M220 518 c0 -152 12 -190 77 -255 43 -43 119 -83 158 -83 24 0 25 -2
25 -65 l0 -65 -80 0 c-79 0 -80 0 -80 -25 l0 -25 185 0 185 0 0 25 c0 24 -2
25 -75 25 l-75 0 0 64 0 63 38 7 c76 12 169 94 198 175 8 22 13 85 14 159 l0
122 -24 0 c-24 0 -24 0 -28 -123 -3 -117 -5 -126 -33 -173 -19 -30 -49 -60
-79 -79 -43 -26 -59 -30 -120 -30 -79 1 -114 15 -165 66 -57 57 -65 82 -69
222 -4 126 -4 127 -28 127 l-24 0 0 -132z"/>
</g>
</svg>
