<svg xmlns="http://www.w3.org/2000/svg" width="24" height="25" viewBox="0 0 24 25">
    <path fill="#CFCFCF" d="M12.464 21.429c0 .1-.078.178-.178.178-1.083 0-1.965-.882-1.965-1.964 0-.1.079-.179.179-.179.1 0 .179.078.179.179 0 .882.725 1.607 1.607 1.607.1 0 .178.078.178.179zm9.107-3.215c0 .782-.647 1.429-1.428 1.429h-5c0 1.574-1.284 2.857-2.857 2.857-1.574 0-2.857-1.283-2.857-2.857h-5c-.782 0-1.429-.647-1.429-1.429l.243-.212c1.592-1.434 3.328-3.946 3.328-9.073 0-2.143 1.775-4.487 4.733-4.922-.056-.134-.09-.28-.09-.436 0-.591.48-1.071 1.072-1.071.591 0 1.071.48 1.071 1.071 0 .157-.033.302-.09.436C16.226 4.442 18 6.786 18 8.929c0 5.39 1.92 7.89 3.571 9.285z"/>
</svg>
