<svg xmlns="http://www.w3.org/2000/svg" xmlns:xlink="http://www.w3.org/1999/xlink" width="48" height="48" viewBox="0 0 48 48">
    <defs>
        <circle id="prefix__a" cx="24" cy="24" r="24"/>
    </defs>
    <g fill="none" fill-rule="evenodd">
        <mask id="prefix__b" fill="#fff">
            <use xlink:href="#prefix__a"/>
        </mask>
        <use fill="#CC4C3A" xlink:href="#prefix__a"/>
        <path fill="#989ABE" d="M-4 32.385C.616 28.128 6.898 26 14.844 26c11.92 0 11.904 12.802 25.492 12.802h16.309l-5.48 12.717-31.408 9.128-17.537-10.8L-4 32.384z" mask="url(#prefix__b)" opacity=".242"/>
        <path fill="#989ABE" d="M-4 42.385C.616 38.128 6.898 36 14.844 36c11.92 0 11.904 12.802 25.492 12.802h16.309l-5.48 12.717-31.408 9.128-17.537-10.8L-4 42.384z" mask="url(#prefix__b)" opacity=".242"/>
        <path fill="#989ABE" d="M0 34.385C4.616 30.128 10.898 28 18.844 28c11.92 0 11.904 12.802 25.492 12.802h16.309l-5.48 12.717-31.408 9.128-17.537-10.8L0 34.384z" mask="url(#prefix__b)" opacity=".242" transform="matrix(-1 0 0 1 60.645 0)"/>
        <g fill="#FFF">
            <path d="M8 18v-7H0v2.333h5.334V18H8zm6.667 0l-.001-4.667H20V11h-8v7h2.667zM8 0v7H0V4.667h5.334V0H8zm6.667 0l-.001 4.667H20V7h-8V0h2.667z" transform="translate(14 15)"/>
        </g>
    </g>
</svg>
