<svg xmlns="http://www.w3.org/2000/svg" width="30" height="30" viewBox="0 0 24 25">
    <path fill="#CC4C3A" d="M9.832 5.625c1.159 0 2.227.39 3.203 1.172.977.781 1.465 1.614 1.465 2.5v2.656c0 .807-.15 1.66-.45 2.559-.299.898-.774 1.608-1.425 2.129l3.945 2.187.117.04c.079.025.17.07.274.136.104.065.202.137.293.215.091.078.176.176.254.293.078.117.117.24.117.37v1.563c0 .287-.104.534-.313.742-.208.209-.455.313-.742.313H3.055c-.287 0-.534-.104-.743-.313-.208-.208-.312-.455-.312-.742v-1.562c0-.39.352-.742 1.055-1.055l4.023-2.187c-.65-.547-1.14-1.283-1.465-2.207-.325-.925-.488-1.752-.488-2.48V9.296c0-.86.495-1.686 1.484-2.48.99-.795 2.064-1.192 3.223-1.192zM14.148 2.5c1.172 0 2.253.397 3.243 1.191.99.795 1.484 1.635 1.484 2.52v2.617c0 .807-.156 1.66-.469 2.559-.312.898-.794 1.608-1.445 2.129l3.984 2.187.274.117c.156.078.325.209.508.39.182.183.273.366.273.548v1.562c0 .287-.104.534-.313.742-.208.209-.455.313-.742.313h-2.07c-.182-.625-.404-1.042-.664-1.25h2.539v-1.094l-.191-.139-.082-.056c-.053 0-.092-.013-.118-.04l-4.023-2.187c-.39-.208-.606-.533-.645-.976-.034-.394.09-.725.375-.996l.114-.098c.494-.39.86-.95 1.093-1.68.235-.729.352-1.406.352-2.03V6.21c0-.495-.365-1.029-1.094-1.602-.729-.573-1.523-.859-2.383-.859-.885 0-1.68.273-2.382.82-.235-.078-.756-.143-1.563-.195.469-.547 1.061-.996 1.777-1.348.717-.351 1.44-.527 2.168-.527z"/>
</svg>
