<svg xmlns="http://www.w3.org/2000/svg" width="26" height="26" viewBox="0 0 24 24">
    <g fill="none" fill-rule="evenodd">
        <path fill-rule="nonzero" stroke="#CC4C3A" d="M16.598 4c1.578 0 2.872.461 3.884 1.384C21.494 6.307 22 7.57 22 9.179c0 1.636-.61 3.199-1.83 4.687-1.19 1.458-2.679 2.768-4.465 3.929-.714.476-1.384.87-2.009 1.183l-.435.213c-.268.128-.49.229-.67.301l-.591.222c-.833-.208-2.068-.848-3.705-1.92-1.786-1.16-3.274-2.47-4.465-3.928C2.61 12.378 2 10.816 2 9.18c0-1.608.506-2.872 1.518-3.795S5.824 4 7.402 4c.922 0 1.808.208 2.656.625.848.417 1.496.997 1.942 1.741.446-.744 1.094-1.324 1.942-1.741C14.79 4.208 15.676 4 16.598 4zm3.036 9.42c-.685.833-1.295 1.488-1.83 1.964-.536.476-1.37 1.086-2.5 1.83-1.25.834-2.352 1.414-3.304 1.741-.857-.294-1.835-.794-2.933-1.498l-.37-.243c-1.132-.744-1.965-1.354-2.5-1.83-.536-.476-1.146-1.131-1.83-1.964-.566-.655-.983-1.384-1.25-2.188-.269-.714-.403-1.399-.403-2.053 0-1.4.432-2.5 1.295-3.304.446-.417.937-.7 1.473-.848.536-.209 1.176-.313 1.92-.313 1.845 0 3.17.67 3.973 2.01L12 7.75l.625-1.027c.804-1.34 2.128-2.009 3.973-2.009.744 0 1.384.104 1.92.313.536.149 1.027.431 1.473.848.863.804 1.295 1.905 1.295 3.304 0 .654-.134 1.339-.402 2.053-.268.804-.685 1.533-1.25 2.188z"/>
        <path d="M0 0H24V24H0z"/>
    </g>
</svg>
