<svg xmlns="http://www.w3.org/2000/svg" width="24" height="25" viewBox="0 0 24 25">
    <path fill="#CFCFCF" d="M19.145 13.67c0-.025 0-.05-.012-.074L12 7.716l-7.133 5.88-.012.074v5.955c0 .434.36.793.794.793h4.763v-4.763h3.176v4.763h4.763c.434 0 .794-.36.794-.793V13.67zm2.766-.856l-.769.918c-.062.075-.16.124-.26.137h-.037c-.1 0-.186-.025-.26-.087L12 6.624l-8.584 7.158c-.087.062-.186.1-.298.087-.1-.013-.198-.062-.26-.137l-.77-.918c-.136-.161-.111-.421.05-.558l8.92-7.43c.52-.435 1.364-.435 1.885 0l3.027 2.53V4.937c0-.223.173-.397.396-.397h2.382c.223 0 .397.174.397.397v5.061l2.717 2.258c.161.137.186.397.05.558z"/>
</svg>
