<svg xmlns="http://www.w3.org/2000/svg" xmlns:xlink="http://www.w3.org/1999/xlink" width="48" height="48" viewBox="0 0 48 48">
    <defs>
        <circle id="prefix__a" cx="24" cy="24" r="24"/>
    </defs>
    <g fill="none" fill-rule="evenodd">
        <mask id="prefix__b" fill="#fff">
            <use xlink:href="#prefix__a"/>
        </mask>
        <use fill="#CC4C3A" xlink:href="#prefix__a"/>
        <path fill="#989ABE" d="M-4 32.385C.616 28.128 6.898 26 14.844 26c11.92 0 11.904 12.802 25.492 12.802h16.309l-5.48 12.717-31.408 9.128-17.537-10.8L-4 32.384z" mask="url(#prefix__b)" opacity=".242"/>
        <path fill="#989ABE" d="M-4 42.385C.616 38.128 6.898 36 14.844 36c11.92 0 11.904 12.802 25.492 12.802h16.309l-5.48 12.717-31.408 9.128-17.537-10.8L-4 42.384z" mask="url(#prefix__b)" opacity=".242"/>
        <path fill="#989ABE" d="M0 34.385C4.616 30.128 10.898 28 18.844 28c11.92 0 11.904 12.802 25.492 12.802h16.309l-5.48 12.717-31.408 9.128-17.537-10.8L0 34.384z" mask="url(#prefix__b)" opacity=".242" transform="matrix(-1 0 0 1 60.645 0)"/>
        <path fill="#EE155B" fill-rule="nonzero" stroke="#FFF" d="M29.518 15.75c1.893 0 3.446.554 4.66 1.66C35.394 18.519 36 20.037 36 21.965c0 1.965-.732 3.84-2.196 5.625-1.429 1.75-3.215 3.322-5.358 4.715-.857.571-1.66 1.044-2.41 1.42l-.523.255c-.321.154-.589.275-.803.362l-.71.266c-1-.25-2.482-1.018-4.446-2.303-2.143-1.393-3.929-2.965-5.358-4.715C12.732 25.804 12 23.93 12 21.964c0-1.928.607-3.446 1.821-4.553 1.215-1.107 2.768-1.661 4.661-1.661 1.107 0 2.17.25 3.188.75 1.018.5 1.794 1.196 2.33 2.09.536-.894 1.312-1.59 2.33-2.09 1.018-.5 2.08-.75 3.188-.75z"/>
    </g>
</svg>
