<?xml version="1.0" encoding="UTF-8"?>
<svg width="16px" height="16px" viewBox="0 0 16 16" version="1.1" xmlns="http://www.w3.org/2000/svg" xmlns:xlink="http://www.w3.org/1999/xlink">
    <!-- Generator: sketchtool 61.2 (101010) - https://sketch.com -->
    <title>9214F2D8-59BC-4BE9-BF7F-68C7D06ADA56</title>
    <desc>Created with sketchtool.</desc>
    <g id="Indihome_style" stroke="none" stroke-width="1" fill="none" fill-rule="evenodd">
        <g id="Android" transform="translate(-186.000000, -343.000000)">
            <g id="Halaman_utama">
                <g id="list_music" transform="translate(0.000000, 287.000000)">
                    <g id="list_music-copy-6" transform="translate(9.000000, 0.000000)">
                        <g id="list_music">
                            <g id="ic_love" transform="translate(177.000000, 56.000000)">
                                <path d="M10.7297098,3 C11.7810395,3 12.6439103,3.30745972 13.3183482,3.92238839 C13.9927861,4.53731706 14.33,5.38035179 14.33,6.45151786 C14.33,7.54252034 13.9233597,8.58391617 13.110067,9.57573661 C12.3166106,10.5477206 11.3248051,11.4205095 10.1346205,12.1941295 C9.65854673,12.511512 9.21223423,12.7743405 8.79566964,12.9826228 L8.50556286,13.1248867 C8.32703602,13.2104308 8.17826435,13.2773781 8.05924674,13.325729 L7.665,13.4735714 C7.10958056,13.3347166 6.28638194,12.9082402 5.19537946,12.1941295 C4.00519494,11.4205095 3.01338938,10.5477206 2.21993304,9.57573661 C1.40664028,8.58391617 1,7.54252034 1,6.45151786 C1,5.38035179 1.33721389,4.53731706 2.01165179,3.92238839 C2.68608968,3.30745972 3.54896052,3 4.60029018,3 C5.21521885,3 5.80534316,3.13885278 6.3706808,3.4165625 C6.93601845,3.69427222 7.36745387,4.08107639 7.665,4.57698661 C7.96254613,4.08107639 8.39398155,3.69427222 8.9593192,3.4165625 C9.52465684,3.13885278 10.1147812,3 10.7297098,3 Z" id="" fill="#CC4C3A" fill-rule="nonzero"></path>
                                <rect id="Rectangle" x="0" y="0" width="16" height="16"></rect>
                            </g>
                        </g>
                    </g>
                </g>
            </g>
        </g>
    </g>
</svg>