<svg xmlns="http://www.w3.org/2000/svg" width="24" height="25" viewBox="0 0 24 25">
    <path fill="#CFCFCF" d="M12 2.5c2.756 0 5.112.978 7.067 2.933C21.022 7.388 22 9.743 22 12.5c0 2.756-.978 5.112-2.933 7.067C17.112 21.522 14.757 22.5 12 22.5c-2.756 0-5.112-.978-7.067-2.933C2.978 17.612 2 15.257 2 12.5c0-2.756.978-5.112 2.933-7.067C6.888 3.478 9.243 2.5 12 2.5zm.433 2.5h-.866c-1.25.096-2.18.545-2.788 1.346-.641.833-.882 1.667-.721 2.5.192.898.24 1.507.144 1.827v.096c-.128.385-.144.834-.048 1.346.16.673.384 1.202.673 1.587.128.641.272 1.138.433 1.49l.05.118c.095.251.142.597.142 1.036 0 .257-.048.417-.144.48-1.603.45-3.045.962-4.327 1.54 1.827 2.21 4.166 3.317 7.019 3.317 2.82 0 5.16-1.106 7.02-3.318-1.379-.544-2.87-1.057-4.472-1.538-.096-.064-.144-.24-.144-.529 0-.224.112-.593.336-1.106.16-.32.305-.833.433-1.538.32-.385.545-.898.673-1.539.096-.577.096-1.025 0-1.346-.032-.032-.048-.064-.048-.096l-.024-.105c-.061-.34-.005-.914.168-1.722.16-.833-.08-1.667-.72-2.5-.61-.833-1.54-1.282-2.79-1.346z"/>
</svg>
