<svg xmlns="http://www.w3.org/2000/svg" width="30" height="30" viewBox="0 0 24 24">
    <g fill="none" fill-rule="evenodd">
        <path fill="#FF2F12" fill-rule="nonzero" d="M19.16 2c.269 0 .5.09.693.268.193.178.29.402.29.67v13.526c0 1.064-.15 1.84-.45 2.33l-.086.126c-.387.625-1.027.937-1.92.937h-1.651c-.625 0-1.168-.2-1.63-.603-.461-.401-.692-.915-.692-1.54s.23-1.138.692-1.54c.462-.402 1.005-.603 1.63-.603h2.678V7L9.43 8.696v10.358c0 .684-.194 1.294-.58 1.83-.03.03-.06.067-.09.112-.03.044-.045.081-.045.111l-.089.09c-.446.535-1.012.803-1.696.803H5.277c-.625 0-1.16-.2-1.607-.603-.447-.401-.67-.915-.67-1.54s.223-1.138.67-1.54c.446-.402.982-.603 1.607-.603H8V4.946c.03-.297.156-.587.38-.87.223-.283.498-.469.825-.558l9.732-1.473c.09-.03.164-.045.224-.045z"/>
        <path d="M0 0H24V24H0z"/>
    </g>
</svg>
