<svg xmlns="http://www.w3.org/2000/svg" width="16" height="16" viewBox="0 0 16 16">
    <g fill="none" fill-rule="evenodd">
        <path fill="#CC4C3A" fill-rule="nonzero" d="M9.475 9.867c-.456.476-1.012.714-1.666.714-.655 0-1.21-.243-1.667-.729-.456-.486-.684-1.076-.684-1.77V3.499c0-.694.228-1.284.684-1.77C6.6 1.243 7.154 1 7.81 1c.654 0 1.21.243 1.666.729.456.486.684 1.076.684 1.77v4.583c0 .694-.228 1.289-.684 1.785zM11.11 5.76h.506v2.38c0 .992-.332 1.85-.997 2.574-.664.724-1.492 1.126-2.484 1.205v1.874h2.053v.536h-4.79v-.536H7.57V11.92c-.992-.08-1.835-.481-2.53-1.205C4.347 9.99 4 9.133 4 8.14v-2.38h.565v2.38c0 .893.323 1.656.967 2.291.645.635 1.414.952 2.306.952.893 0 1.662-.317 2.306-.952.645-.635.967-1.398.967-2.29V5.76z"/>
        <path d="M0 0H16V16H0z"/>
    </g>
</svg>
