<?xml version="1.0" encoding="UTF-8"?>
<svg width="32px" height="32px" viewBox="0 0 32 32" version="1.1" xmlns="http://www.w3.org/2000/svg" xmlns:xlink="http://www.w3.org/1999/xlink">
    <!-- Generator: sketchtool 61.2 (101010) - https://sketch.com -->
    <title>3E50F2FB-1D1B-4B23-9FBA-00E255124787</title>
    <desc>Created with sketchtool.</desc>
    <defs>
        <circle id="path-1" cx="16" cy="16" r="16"></circle>
    </defs>
    <g id="Indihome_style" stroke="none" stroke-width="1" fill="none" fill-rule="evenodd">
        <g id="Android" transform="translate(-313.000000, -308.000000)">
            <g id="Halaman_utama">
                <g id="list_music" transform="translate(0.000000, 287.000000)">
                    <g id="list_music-copy-6" transform="translate(9.000000, 0.000000)">
                        <g id="list_music">
                            <g id="ic_myrecording" transform="translate(304.000000, 21.000000)">
                                <g id="Oval-+-Oval-Copy-2-Mask">
                                    <mask id="mask-2" fill="white">
                                        <use xlink:href="#path-1"></use>
                                    </mask>
                                    <use id="Mask" fill="#CC4C3A" xlink:href="#path-1"></use>
                                    <path d="M-2.66666667,21.5896836 C0.410757019,18.7521168 4.59838674,17.3333333 9.89622251,17.3333333 C17.8429761,17.3333333 17.831703,25.8682695 26.890431,25.8682695 C32.9295831,25.8682695 36.5538926,25.8682695 37.7633595,25.8682695 L34.1095119,34.3462672 L13.1710639,40.4316224 L1.4801458,33.2308033 L-2.66666667,21.5896836 Z" id="Path-2" fill="#989ABE" opacity="0.242257254" mask="url(#mask-2)"></path>
                                    <path d="M-2.66666667,28.2563503 C0.410757019,25.4187834 4.59838674,24 9.89622251,24 C17.8429761,24 17.831703,32.5349362 26.890431,32.5349362 C32.9295831,32.5349362 36.5538926,32.5349362 37.7633595,32.5349362 L34.1095119,41.0129338 L13.1710639,47.0982891 L1.4801458,39.89747 L-2.66666667,28.2563503 Z" id="Path-2-Copy-2" fill="#989ABE" opacity="0.242257254" mask="url(#mask-2)"></path>
                                    <path d="M-5.5067062e-14,22.923017 C3.07742369,20.0854501 7.26505341,18.6666667 12.5628892,18.6666667 C20.5096428,18.6666667 20.4983697,27.2016029 29.5570977,27.2016029 C35.5962497,27.2016029 39.2205592,27.2016029 40.4300262,27.2016029 L36.7761786,35.6796005 L15.8377306,41.7649557 L4.14681247,34.5641366 L-5.5067062e-14,22.923017 Z" id="Path-2-Copy" fill="#989ABE" opacity="0.242257254" mask="url(#mask-2)" transform="translate(20.215013, 30.215811) scale(-1, 1) translate(-20.215013, -30.215811) "></path>
                                </g>
                                <path d="M21.3330186,14.1317365 C21.5029569,14.1317365 21.6503352,14.192797 21.7741578,14.3148841 C21.8985297,14.4370724 21.9607843,14.5815045 21.9607843,14.7484503 L21.9607843,14.7484503 L21.9607843,15.9820465 C21.9607843,17.4018956 21.4785426,18.6370782 20.5144714,19.6873919 C19.5504001,20.7377393 18.3593552,21.3400065 16.9412337,21.4940921 L16.9412337,21.4940921 L16.9412337,22.7663025 L19.4506485,22.7663025 C19.6205868,22.7663025 19.7678278,22.8274305 19.8917876,22.9495176 C20.0161252,23.0715372 20.0782769,23.216138 20.0782769,23.3831513 C20.0782769,23.549962 20.0161252,23.6948329 19.8917876,23.816785 C19.7677934,23.9388046 19.6205525,24 19.4506485,24 L19.4506485,24 L13.1764591,24 C13.0065208,24 12.8594859,23.9387708 12.73532,23.816785 C12.6111197,23.6947991 12.5490024,23.5499283 12.5490024,23.3831513 C12.5490024,23.2161042 12.6111197,23.0715034 12.73532,22.9495176 C12.8594859,22.8274305 13.0065208,22.7663025 13.1764591,22.7663025 L13.1764591,22.7663025 L15.6861829,22.7663025 L15.6861829,21.4940921 C14.2678211,21.3400065 13.0766732,20.7377393 12.1127049,19.6873919 C11.148771,18.6370782 10.6666667,17.4018956 10.6666667,15.9820465 L10.6666667,15.9820465 L10.6666667,14.7484503 C10.6666667,14.5814707 10.7287496,14.4369374 10.8529842,14.3148841 C10.9771157,14.192797 11.124185,14.1317365 11.2942264,14.1317365 C11.4642677,14.1317365 11.6111653,14.192797 11.7353656,14.3148841 C11.8594971,14.4369374 11.9216144,14.5814707 11.9216144,14.7484503 L11.9216144,14.7484503 L11.9216144,15.9820465 C11.9216144,17.1706828 12.3512847,18.1875128 13.210694,19.0320977 C14.0702064,19.8769526 15.1044643,20.2993801 16.3136396,20.2993801 C17.5228493,20.2993801 18.5572103,19.8769526 19.4164136,19.0320977 C20.2758915,18.1872765 20.7057336,17.170649 20.7057336,15.9820465 L20.7057336,15.9820465 L20.7057336,14.7484503 C20.7057336,14.5814707 20.7678165,14.4369374 20.8918794,14.3148841 C21.016217,14.192797 21.1632519,14.1317365 21.3330186,14.1317365 Z M16.3629335,8 C17.2273261,8 17.9670546,8.29985618 18.5824975,8.89913303 C19.1980779,9.49854388 19.5055413,10.2189893 19.5055413,11.0607038 L19.5055413,11.0607038 L19.5055413,15.9575953 C19.5055413,16.7993098 19.1978371,17.5200567 18.5824975,18.119166 C17.9670546,18.7182754 17.2273261,19.0179641 16.3629335,19.0179641 C15.4986442,19.0179641 14.7587093,18.7182754 14.1433352,18.119166 C13.5279612,17.5200567 13.2201194,16.7992763 13.2201194,15.9575953 L13.2201194,15.9575953 L13.2201194,11.0607038 C13.2201194,10.2189893 13.5278236,9.49844338 14.1433352,8.89913303 C14.7588125,8.29985618 15.4986442,8 16.3629335,8 Z" id="Combined-Shape" fill="#FFFFFF" fill-rule="nonzero"></path>
                            </g>
                        </g>
                    </g>
                </g>
            </g>
        </g>
    </g>
</svg>