<svg xmlns="http://www.w3.org/2000/svg" width="26" height="26" viewBox="0 0 24 24">
    <g fill="none" fill-rule="evenodd">
        <path fill="#CC4C3A" fill-rule="nonzero" d="M16.113 16.906c.503-.503 1.164-.755 1.981-.755.818 0 1.51.283 2.076.849.566.566.849 1.258.849 2.075 0 .818-.283 1.51-.85 2.076-.565.566-1.257.849-2.075.849-.817 0-1.51-.283-2.075-.85-.566-.565-.85-1.257-.85-2.075 0-.188.032-.408.095-.66l-7.17-4.15c-.597.534-1.289.801-2.075.801-.818 0-1.525-.299-2.123-.896C3.3 13.572 3 12.865 3 12.047c0-.817.29-1.525.873-2.122.581-.598 1.281-.897 2.099-.897.786 0 1.478.268 2.075.802l7.123-4.104c-.063-.314-.095-.55-.095-.707 0-.818.3-1.525.897-2.123C16.569 2.3 17.277 2 18.094 2c.818 0 1.525.299 2.123.896.597.598.896 1.305.896 2.123 0 .817-.299 1.525-.896 2.123-.598.597-1.305.896-2.123.896-.786 0-1.478-.268-2.075-.802L8.896 11.34c.063.314.095.55.095.707 0 .157-.032.393-.095.708l7.217 4.15z"/>
        <path d="M0 0H24V24H0z"/>
    </g>
</svg>
