<?xml version="1.0" encoding="UTF-8"?>
<svg width="16px" height="16px" viewBox="0 0 16 16" version="1.1" xmlns="http://www.w3.org/2000/svg" xmlns:xlink="http://www.w3.org/1999/xlink">
    <!-- Generator: sketchtool 61.2 (101010) - https://sketch.com -->
    <title>98919B71-1643-43E2-A953-C64FBCEBAB62</title>
    <desc>Created with sketchtool.</desc>
    <g id="Indihome_style" stroke="none" stroke-width="1" fill="none" fill-rule="evenodd">
        <g id="Android" transform="translate(-121.000000, -343.000000)">
            <g id="Halaman_utama">
                <g id="list_music" transform="translate(0.000000, 287.000000)">
                    <g id="list_music-copy-6" transform="translate(9.000000, 0.000000)">
                        <g id="list_music">
                            <g id="ic_eye" transform="translate(112.000000, 56.000000)">
                                <path d="M8,6.06390704 C8.31953682,6.06390704 8.61970327,6.14621075 8.90050835,6.31082062 C9.18131344,6.4754305 9.40401757,6.69813464 9.56862745,6.97893972 C9.73323733,7.25974481 9.81554103,7.55991126 9.81554103,7.87944808 C9.81554103,8.19898489 9.73323733,8.49915134 9.56862745,8.77995643 C9.40401757,9.06076151 9.18131344,9.28346565 8.90050835,9.44807553 C8.61970327,9.6126854 8.31953682,9.69498911 8,9.69498911 C7.68046318,9.69498911 7.38029673,9.6126854 7.09949165,9.44807553 C6.81868656,9.28346565 6.59598243,9.06076151 6.43137255,8.77995643 C6.26676267,8.49915134 6.18445897,8.19898489 6.18445897,7.87944808 C6.18445897,7.55991126 6.26676267,7.25974481 6.43137255,6.97893972 C6.59598243,6.69813464 6.81868656,6.4754305 7.09949165,6.31082062 C7.38029673,6.14621075 7.68046318,6.06390704 8,6.06390704 Z M8,10.9150327 C8.55192723,10.9150327 9.06027364,10.7794736 9.52505447,10.5083515 C9.98983529,10.2372293 10.3577813,9.86928337 10.6289034,9.40450254 C10.9000256,8.93972171 11.0355846,8.43137531 11.0355846,7.87944808 C11.0355846,7.32752084 10.9000256,6.81917444 10.6289034,6.35439361 C10.3577813,5.88961278 9.98983529,5.52166681 9.52505447,5.25054466 C9.06027364,4.97942251 8.55192723,4.84386347 8,4.84386347 C7.44807277,4.84386347 6.93972636,4.97942251 6.47494553,5.25054466 C6.01016471,5.52166681 5.64221874,5.88961278 5.37109659,6.35439361 C5.09997444,6.81917444 4.9644154,7.32752084 4.9644154,7.87944808 C4.9644154,8.43137531 5.09997444,8.93972171 5.37109659,9.40450254 C5.64221874,9.86928337 6.01016471,10.2372293 6.47494553,10.5083515 C6.93972636,10.7794736 7.44807277,10.9150327 8,10.9150327 Z M8,3.33333333 C8.99734219,3.33333333 9.94625548,3.52698911 10.8467683,3.91430646 C11.7182324,4.29194089 12.4855934,4.82449426 13.1488744,5.51198257 C13.8121553,6.19947088 14.318081,6.98861816 14.6666667,7.87944808 C14.318081,8.770278 13.8121553,9.55700458 13.1488744,10.2396514 C12.4855934,10.9222983 11.7182324,11.4524309 10.8467683,11.8300654 C9.94625548,12.2173827 8.99734219,12.4110385 8,12.4110385 C7.00265781,12.4110385 6.05374001,12.2173827 5.15323166,11.8300654 C4.28176761,11.4524309 3.51440661,10.9222983 2.85112564,10.2396514 C2.18784466,9.55700458 1.68191895,8.770278 1.33333333,7.87944808 C1.68191895,6.98861816 2.18784466,6.19947088 2.85112564,5.51198257 C3.51440661,4.82449426 4.28176761,4.29194089 5.15323166,3.91430646 C6.05374001,3.52698911 7.00265781,3.33333333 8,3.33333333 Z" id="" fill="#CC4C3A" fill-rule="nonzero"></path>
                                <rect id="Rectangle" x="0" y="0" width="16" height="16"></rect>
                            </g>
                        </g>
                    </g>
                </g>
            </g>
        </g>
    </g>
</svg>