<svg xmlns="http://www.w3.org/2000/svg" width="30" height="30" viewBox="0 0 24 24">
    <g fill="none" fill-rule="evenodd">
        <path fill="#6666" fill-rule="nonzero" d="M9.74 2c.224.73.336 1.31.336 1.743 0 .433-.112.845-.335 1.238 1.489.997 2.36 2.027 2.614 3.09.254 1.063.786 1.59 1.598 1.582.265.624.428 1.095.488 1.414.06.32.06.708 0 1.167l-2.086.874v.427h2.785c.376.792.376 1.411 0 1.857-.564.668-1.482.605-1.903 2.092-.28.991-.28 1.922 0 2.79 1.145.096 1.888.195 2.23.297.344.103.96.58 1.847 1.429H5.794c.633-1.15 1.173-1.725 1.618-1.725.445 0 .608-1.053.49-3.16-1-1.306-2.088-2.124-3.265-2.452-1.764-.493-2.892-1.941-2.587-5.01.203-2.046 1.21-3.382 3.021-4.009 1.202-.355 2.146-.832 2.83-1.432.686-.6 1.299-1.338 1.84-2.212zm7.296 3.347c.157-.196.443-.229.64-.072 1.696 1.351 2.94 3.194 3.55 5.324.417 1.452.515 2.95.301 4.413-.036.249-.267.42-.515.385-.249-.037-.42-.267-.385-.516.195-1.336.106-2.704-.274-4.031-.559-1.947-1.694-3.63-3.244-4.864-.197-.157-.229-.443-.073-.64zm-.815 2.181c.157-.196.443-.228.639-.072 1.258 1.002 2.18 2.367 2.632 3.946.308 1.076.38 2.186.222 3.27-.036.249-.267.42-.515.384-.248-.036-.42-.267-.384-.515.14-.957.076-1.937-.197-2.889-.4-1.395-1.214-2.6-2.324-3.485-.197-.156-.23-.442-.073-.639zm-.547 2.323c.16-.197.451-.231.65-.075.717.56 1.241 1.328 1.496 2.216.174.606.212 1.231.118 1.843-.038.249-.273.422-.526.387-.252-.035-.426-.265-.388-.514.074-.485.044-.98-.094-1.46-.202-.706-.617-1.313-1.185-1.758-.2-.155-.23-.441-.07-.639z"/>
        <path d="M0 0H24V24H0z"/>
    </g>
</svg>
