<svg xmlns="http://www.w3.org/2000/svg" xmlns:xlink="http://www.w3.org/1999/xlink" width="48" height="48" viewBox="0 0 48 48">
    <defs>
        <circle id="prefix__a" cx="24" cy="24" r="24"/>
    </defs>
    <g fill="none" fill-rule="evenodd">
        <mask id="prefix__b" fill="#fff">
            <use xlink:href="#prefix__a"/>
        </mask>
        <use fill="#CC4C3A" xlink:href="#prefix__a"/>
        <path fill="#989ABE" d="M-4 32.385C.616 28.128 6.898 26 14.844 26c11.92 0 11.904 12.802 25.492 12.802h16.309l-5.48 12.717-31.408 9.128-17.537-10.8L-4 32.384z" mask="url(#prefix__b)" opacity=".242"/>
        <path fill="#989ABE" d="M-4 42.385C.616 38.128 6.898 36 14.844 36c11.92 0 11.904 12.802 25.492 12.802h16.309l-5.48 12.717-31.408 9.128-17.537-10.8L-4 42.384z" mask="url(#prefix__b)" opacity=".242"/>
        <path fill="#989ABE" d="M0 34.385C4.616 30.128 10.898 28 18.844 28c11.92 0 11.904 12.802 25.492 12.802h16.309l-5.48 12.717-31.408 9.128-17.537-10.8L0 34.384z" mask="url(#prefix__b)" opacity=".242" transform="matrix(-1 0 0 1 60.645 0)"/>
        <path fill="#FFF" fill-rule="nonzero" d="M21.289 12c.268.875.402 1.572.402 2.091 0 .52-.134 1.015-.402 1.486 1.787 1.197 2.833 2.433 3.137 3.708.304 1.276.944 1.909 1.918 1.898.317.749.513 1.315.585 1.698.072.383.072.85 0 1.4l-2.503 1.049v.512h3.342c.452.95.452 1.694 0 2.228-.677.802-1.778.727-2.283 2.511-.337 1.19-.337 2.306 0 3.349 1.374.115 2.265.233 2.675.356.413.123 1.152.695 2.217 1.714H16.552c.76-1.38 1.408-2.07 1.942-2.07s.73-1.264.588-3.792c-1.2-1.567-2.506-2.548-3.917-2.942-2.118-.591-3.472-2.33-3.105-6.013.244-2.455 1.453-4.058 3.626-4.81 1.442-.426 2.574-.999 3.396-1.72.822-.72 1.558-1.604 2.207-2.653zm8.755 4.016c.187-.235.53-.274.766-.087 2.037 1.622 3.529 3.833 4.262 6.39.5 1.743.617 3.54.36 5.296-.043.298-.32.504-.618.46-.298-.043-.505-.32-.461-.618.234-1.603.127-3.244-.33-4.838-.67-2.336-2.032-4.355-3.892-5.836-.236-.188-.275-.531-.087-.767zm-.979 2.618c.188-.236.531-.274.767-.087 1.51 1.202 2.615 2.84 3.158 4.735.37 1.291.457 2.623.267 3.925-.043.298-.32.504-.618.46-.298-.043-.505-.32-.461-.618.167-1.149.09-2.324-.237-3.466-.48-1.674-1.456-3.12-2.789-4.182-.235-.188-.274-.531-.087-.767zm-.66 2.784c.187-.236.53-.275.766-.087.85.676 1.472 1.599 1.777 2.665.209.726.258 1.476.15 2.208-.043.299-.32.505-.618.461-.298-.043-.504-.32-.46-.618.084-.58.045-1.174-.12-1.75-.243-.847-.735-1.577-1.409-2.113-.235-.188-.274-.53-.087-.766z"/>
    </g>
</svg>
